<svg width="39" height="42" viewBox="0 0 39 42" fill="none" xmlns="http://www.w3.org/2000/svg">
<path fill-rule="evenodd" clip-rule="evenodd" d="M35.5112 3.70593L36.471 19.0271C36.471 30.765 19.5006 37.002 19.5006 37.002C19.5006 37.002 2.52954 30.765 2.52954 19.0271C2.52954 17.1671 3.40791 4.45581 3.48934 3.70593C2.8637 3.79393 2.23862 3.88411 1.61578 3.98249C1.57871 4.18417 0 18.674 0 20.5334C0 32.2713 19.5006 42 19.5006 42C19.5006 42 39 32.2713 39 20.5334C39 18.674 37.4218 4.18417 37.3842 3.98249L35.5112 3.70593Z" fill="#4F6893"/>
<path fill-rule="evenodd" clip-rule="evenodd" d="M35.5111 3.70593L36.471 19.0271C36.471 30.765 19.5 37.002 19.5 37.002L19.5 42C19.5 42 39 32.2713 39 20.5334C39 18.674 37.4218 4.18417 37.3842 3.98249L35.5111 3.70593Z" fill="#32466A"/>
<path fill-rule="evenodd" clip-rule="evenodd" d="M35.5112 3.70593C35.5927 4.45581 36.9044 17.6023 36.9044 19.4622C36.9044 31.2001 19.5006 41.7888 19.5006 41.7888C19.5006 41.7888 2.0962 31.2001 2.0962 19.4622C2.0962 17.6023 3.40791 4.45581 3.48934 3.70593C2.8637 3.79393 2.23862 3.88411 1.61578 3.98249C1.57871 4.18417 0 18.674 0 20.5334C0 32.2713 19.5006 42 19.5006 42C19.5006 42 39 32.2713 39 20.5334C39 18.674 37.4218 4.18417 37.3842 3.98249C36.7619 3.88411 36.1369 3.79393 35.5112 3.70593Z" fill="#88AFE4"/>
<path fill-rule="evenodd" clip-rule="evenodd" d="M6.09603 2.60574L6.09375 7.41176C6.09375 7.41176 11.3723 5.02209 15.4043 5.07997H23.5969C28.0453 5.15488 32.9057 7.41176 32.9057 7.41176L32.9062 2.60574C30.7346 1.87199 26.842 0.63998 23.6629 0.230257C22.7745 0.115907 21.7244 0.0441488 20.6329 0.0149812C19.8305 -0.00646122 19.0058 -0.00488592 18.2067 0.0197071C17.1744 0.0514773 16.1847 0.12166 15.3411 0.230257C12.1619 0.63998 8.26763 1.87142 6.09603 2.60574Z" fill="#32466A"/>
<path fill-rule="evenodd" clip-rule="evenodd" d="M15.8438 5.00084L19.5 33.3529L23.1384 5.00084L20.7631 0H18.3179L15.8438 5.00084Z" fill="#4F6893"/>
<path fill-rule="evenodd" clip-rule="evenodd" d="M6.09603 2.5716L6.09375 7.31464C6.09375 7.31464 14.0096 0.509223 18.0416 0.566348L19.5006 33.3529L20.9443 0.566348C25.3927 0.640275 32.9057 7.31464 32.9057 7.31464L32.9062 2.5716C30.7346 1.84746 26.842 0.631594 23.6629 0.227239C21.2779 -0.0757465 17.7261 -0.0757465 15.3411 0.227239C12.1619 0.631594 8.26763 1.8469 6.09603 2.5716Z" fill="#88AFE4"/>
</svg>
